<svg xmlns="http://www.w3.org/2000/svg" xmlns:xlink="http://www.w3.org/1999/xlink" width="395.155" height="160.888" viewBox="0 0 395.155 160.888"><defs><style>.a{fill:#f7f7f7;stroke:#fff;stroke-miterlimit:10;stroke-width:0.578px;font-size:53px;font-family:EurostileBold, Eurostile;letter-spacing:0.02em;}.b{fill:#b94b2b;}.c{filter:url(#c);}.d{filter:url(#a);}</style><filter id="a" x="0" y="40.814" width="395.155" height="84.155" filterUnits="userSpaceOnUse"><feOffset input="SourceAlpha"/><feGaussianBlur stdDeviation="5" result="b"/><feFlood flood-opacity="0.502"/><feComposite operator="in" in2="b"/><feComposite in="SourceGraphic"/></filter><filter id="c" x="89.578" y="0" width="131.94" height="160.888" filterUnits="userSpaceOnUse"><feOffset input="SourceAlpha"/><feGaussianBlur stdDeviation="5" result="d"/><feFlood flood-opacity="0.502"/><feComposite operator="in" in2="d"/><feComposite in="SourceGraphic"/></filter></defs><g transform="translate(-12.422 -47.455)"><g class="d" transform="matrix(1, 0, 0, 1, 12.42, 47.45)"><text class="a" transform="translate(15.58 98.39)"><tspan x="0" y="0" xml:space="preserve">Top        Games</tspan></text></g><g class="c" transform="matrix(1, 0, 0, 1, 12.42, 47.45)"><path class="b" d="M137.89,127.179c-4.623-6.646-11.83-11.037-21.417-13.051a59.794,59.794,0,0,0-9.747-1.247,65.882,65.882,0,0,0-7.141.1l7.815-23.75,35.652,7.492c3.358.7,5.162-.586,6.086-1.792a15.14,15.14,0,0,0,2.409-5.1l2.073-8.679L99.654,69.806,83,125.131l2.54-.163c17.1-1.1,27.409,2.324,31.355,8.983,2.418,4.078,3.038,8.7,1.9,14.132a33.834,33.834,0,0,1-3.765,9.537,34.775,34.775,0,0,1-8.491,9.572A63.113,63.113,0,0,1,91.3,175.876a115.839,115.839,0,0,1-23.55,6.574,4,4,0,0,0-3.674,3.273,7.864,7.864,0,0,0,1.055,5.249l.529,1.018,1.143-.066c21.918-1.265,39.439-5.453,52.077-12.45,12.867-7.132,20.656-16.769,23.152-28.646C143.928,141.818,142.535,133.863,137.89,127.179Z" transform="matrix(0.99, 0.1, -0.1, 0.99, 61.04, -61.11)"/></g></g></svg>