<svg xmlns="http://www.w3.org/2000/svg" xmlns:xlink="http://www.w3.org/1999/xlink" width="273.067" height="191.496" viewBox="0 0 273.067 191.496"><defs><style>.a{fill:#403186;}.b{fill:#fff;}.c{filter:url(#c);}.d{filter:url(#a);}</style><filter id="a" x="130.275" y="0" width="112.355" height="119.66" filterUnits="userSpaceOnUse"><feOffset input="SourceAlpha"/><feGaussianBlur stdDeviation="10" result="b"/><feFlood flood-opacity="0.749"/><feComposite operator="in" in2="b"/><feComposite in="SourceGraphic"/></filter><filter id="c" x="0" y="60.881" width="273.067" height="130.615" filterUnits="userSpaceOnUse"><feOffset input="SourceAlpha"/><feGaussianBlur stdDeviation="10" result="d"/><feFlood flood-opacity="0.749"/><feComposite operator="in" in2="d"/><feComposite in="SourceGraphic"/></filter></defs><g transform="translate(-226.262 15.338)"><g transform="translate(386.537 14.662)"><g class="d" transform="matrix(1, 0, 0, 1, -160.28, -30)"><path class="a" d="M308.938,14.662,306.5,24.4V68.233h10.961v6.088h6.086l6.088-6.088h9.739l19.481-19.479V14.662Z" transform="translate(-146.23 15.34)"/></g></g><path class="b" d="M349.5,43.325l-8.525,8.525H327.585l-7.306,7.3v-7.3H309.321V16.54H349.5Z" transform="translate(84.524 2.991)"/><path class="a" d="M314.486,34.908h4.87V20.3h-4.87Zm13.393,0h4.87V20.3h-4.87Z" transform="translate(92.751 8.975)"/><g transform="translate(256.262 75.543)"><g class="c" transform="matrix(1, 0, 0, 1, -30, -90.88)"><path class="a" d="M469.329,60.054V96.58l-18.26,12.177H438.893v-6.091l-8.523,6.091H419.414v-6.091l-6.086,6.091H393.847l-6.091-6.091-1.219,6.091H369.493l-6.967-6.091-.392,6.091H342.817l-.682-6.091-5.23,6.091H307.4l-6.088-2.435v2.435H285.483L267.217,97.8,256.262,86.843v-48.7H279.4L290.352,49.1h49.921V38.141h41.395V49.1h10.961v6.086l6.088-6.086h12.174l10.958-10.958h23.132V49.1h13.4Z" transform="translate(-226.26 52.74)"/></g></g><path class="b" d="M359.746,59.5l-8.522-8.521h-15.83V40.018H322v49.92h13.4V64.368H346.35v25.57h13.4Z" transform="translate(104.718 40.393)"/><path class="b" d="M338.074,44.245h-20.7l-8.523,8.521V74.681l8.523,8.525h20.7V69.814h-15.83V57.635h15.83Z" transform="translate(83.775 47.126)"/><path class="b" d="M321.934,50.978H310.977V40.018h-13.4v41.4l8.523,8.525h15.828V76.547H310.977V64.368h10.956V50.978Z" transform="translate(65.823 40.393)"/><rect class="b" width="13.392" height="6.09" transform="translate(345.143 80.411)"/><rect class="b" width="13.392" height="38.96" transform="translate(345.143 91.37)"/><path class="b" d="M319.329,44.245H305.936V69.814h-4.869V44.245H287.673V69.814H282.8V44.245h-13.4V83.206h41.4l8.522-8.525V44.245Z" transform="translate(20.944 47.126)"/><path class="b" d="M282.49,50.978H271.533V40.018H258.14v41.4l8.523,8.525H282.49V76.547H271.533V64.368H282.49V50.978Z" transform="translate(2.992 40.393)"/></g></svg>